<?xml version="1.0" encoding="UTF-8" standalone="no"?>
<svg
   xmlns:dc="http://purl.org/dc/elements/1.1/"
   xmlns:cc="http://creativecommons.org/ns#"
   xmlns:rdf="http://www.w3.org/1999/02/22-rdf-syntax-ns#"
   xmlns:svg="http://www.w3.org/2000/svg"
   xmlns="http://www.w3.org/2000/svg"
   xmlns:sodipodi="http://sodipodi.sourceforge.net/DTD/sodipodi-0.dtd"
   xmlns:inkscape="http://www.inkscape.org/namespaces/inkscape"
   sodipodi:docname="0.svg"
   inkscape:version="1.0 (4035a4f, 2020-05-01)"
   id="svg8"
   version="1.1"
   viewBox="0 0 135.46666 135.46667"
   height="512"
   width="512">
  <defs
     id="defs2" />
  <sodipodi:namedview
     inkscape:window-maximized="0"
     inkscape:window-y="45"
     inkscape:window-x="2087"
     inkscape:window-height="1035"
     inkscape:window-width="1663"
     borderlayer="true"
     inkscape:showpageshadow="false"
     units="px"
     showgrid="false"
     inkscape:document-rotation="0"
     inkscape:current-layer="layer1"
     inkscape:document-units="px"
     inkscape:cy="175.53471"
     inkscape:cx="190.29888"
     inkscape:zoom="1.3331985"
     inkscape:pageshadow="2"
     inkscape:pageopacity="0.0"
     borderopacity="1.0"
     bordercolor="#666666"
     pagecolor="#ffffff"
     id="base"
     inkscape:snap-global="false" />
  <metadata
     id="metadata5">
    <rdf:RDF>
      <cc:Work
         rdf:about="">
        <dc:format>image/svg+xml</dc:format>
        <dc:type
           rdf:resource="http://purl.org/dc/dcmitype/StillImage" />
        <dc:title />
      </cc:Work>
    </rdf:RDF>
  </metadata>
  <g
     id="layer1"
     inkscape:groupmode="layer"
     inkscape:label="レイヤー 1">
    <path
       style="fill:#ffee58;fill-opacity:1;stroke-width:0.999999"
       d="m -1039.4336,1112.8984 c -5.0327,5.2922 -8.7883,9.9974 -11.5137,14.5469 5.943,-5.9913 8.777,-9.4158 10.1836,-12.0547 z"
       transform="scale(0.26458333)"
       id="path976" />
    <path
       id="path905"
       style="fill:#ffee58;fill-opacity:1;stroke-width:0.264583"
       d="m 67.677961,0.130997 c -5.254451,0.004 -7.814395,1.77023 -16.829463,11.61221 -1.767919,1.93008 -3.149433,3.17917 -4.097425,3.70416 l -1.430403,0.79221 -8.46667,-0.0775 c -9.46325,-0.0866 -11.05506,0.0913 -14.05857,1.56993 -2.05591,1.01212 -4.23337,3.23731 -5.22397,5.33818 -1.31587,2.79074 -1.51462,4.72445 -1.43092,13.9392 l 0.076,8.33437 -0.62994,1.18133 c -0.66799,1.25318 -2.45018,3.09068 -8.28683,8.54365 -5.56016,5.19467 -7.18974,8.0581 -7.18974,12.63232 0,1.99631 0.12598,2.8402 0.6134,4.10104 1.31599,3.4041 2.98698,5.33506 11.00915,12.72376 1.90478,1.75437 3.17037,3.16048 3.69124,4.10104 l 0.79272,1.43145 -0.076,8.33438 c -0.0837,9.214753 0.11505,11.148453 1.43092,13.939203 0.98858,2.09658 3.1695,4.32787 5.20382,5.32371 2.99468,1.46595 4.83075,1.67108 14.18828,1.58437 l 8.35711,-0.0775 1.430403,0.79219 c 0.941869,0.52162 2.342343,1.78363 4.101042,3.69591 8.031329,8.73262 9.87793,10.24006 13.946951,11.38327 1.734625,0.48736 4.854387,0.37042 6.657991,-0.24961 3.294388,-1.13246 5.151419,-2.71314 13.286528,-11.30678 4.333627,-4.5779 3.533278,-4.33096 13.758334,-4.23749 9.203491,0.0842 10.786001,-0.0751 13.736111,-1.37975 2.02661,-0.89624 4.38461,-3.19402 5.3945,-5.25703 1.46597,-2.99468 1.67109,-4.83023 1.5844,-14.187783 l -0.0775,-8.3571 0.7922,-1.43042 c 0.52591,-0.94964 1.77073,-2.32555 3.70417,-4.09432 5.92329,-5.4188 8.94538,-8.63933 9.99267,-10.64791 1.92611,-3.69409 2.22872,-6.88486 0.97514,-10.28621 -1.00865,-2.73675 -2.68879,-4.92575 -6.54741,-8.53075 -5.83665,-5.45297 -7.61935,-7.29047 -8.28735,-8.54365 l -0.62942,-1.18133 0.0755,-8.33437 c 0.0853,-9.38777 -0.11797,-11.24572 -1.55132,-14.15728 -1.05133,-2.13555 -3.37774,-4.40529 -5.4591,-5.32577 -2.85041,-1.26059 -4.72711,-1.44551 -13.834817,-1.36271 l -8.334375,0.076 -1.181322,-0.62994 c -1.253243,-0.66799 -3.090748,-2.45018 -8.543726,-8.28683 -5.24533,-5.61439 -8.022389,-7.19581 -12.632303,-7.19181 z" />
    <path
       style="fill:#ffcc00;fill-opacity:1;stroke-width:0.238823"
       d="m 35.082453,23.28461 c -6.240554,-0.004 -7.684495,0.25679 -10.137701,1.38606 -1.919112,0.88342 -3.951691,2.82564 -4.876378,4.65936 -1.228313,2.43585 -1.41384,4.12367 -1.335708,12.16661 l 0.0709,7.27452 -0.588021,1.03111 c -0.623543,1.09382 -2.28715,2.69765 -7.735441,7.45721 -5.190198,4.53408 -6.711351,7.03335 -6.711351,11.02589 0,1.74246 0.117597,2.47902 0.572585,3.57952 1.228426,2.97122 2.78823,4.65665 10.276618,11.10576 1.77804,1.53128 2.959427,2.75858 3.445641,3.57953 l 0.739969,1.24941 -0.0709,7.27451 c -0.07814,8.04294 0.107395,9.73075 1.335708,12.16661 0.922804,1.82998 2.958605,3.77752 4.857565,4.64671 2.795423,1.27953 4.509325,1.45861 13.244226,1.38294 l 7.801046,-0.0676 1.335226,0.69147 c 0.879198,0.45527 2.186494,1.55679 3.828164,3.2259 7.496938,7.62213 9.220672,8.93789 13.018947,9.93573 1.6192,0.42535 4.531379,0.32331 6.21498,-0.21787 2.512643,-0.80763 4.13343,-1.88034 8.783171,-6.3359 -3.581383,-0.99172 -5.42111,-2.44328 -12.704436,-9.84823 -1.64167,-1.66908 -2.948966,-2.77061 -3.828165,-3.22588 l -1.335228,-0.69148 -7.801046,0.0676 c -8.734892,0.0756 -10.448794,-0.1034 -13.244215,-1.38293 -1.89896,-0.86921 -3.934762,-2.81675 -4.857565,-4.64673 -1.228314,-2.43584 -1.413841,-4.12365 -1.335709,-12.1666 l 0.0709,-7.27452 -0.73997,-1.24941 C 32.890051,79.26296 31.708662,78.03567 29.930622,76.50438 22.44223,70.05528 20.882428,68.36985 19.654001,65.39863 19.199012,64.29812 19.081417,63.56154 19.081417,61.8191 c 0,-3.99254 1.521153,-6.49182 6.71135,-11.0259 5.448293,-4.75954 7.111901,-6.36339 7.735447,-7.45721 l 0.588021,-1.03111 -0.0709,-7.27452 c -0.07356,-7.57209 0.08721,-9.5116 1.131182,-11.74532 -0.02829,-3e-5 -0.06598,-4.6e-4 -0.09406,-4.6e-4 z"
       id="path959" />
    <path
       id="path963"
       style="fill:#ffffff;fill-opacity:1;stroke-width:0.238765"
       d="m 70.554724,4.85692 c -4.635211,0.004 -6.893464,1.63419 -14.846102,10.71986 -0.467145,0.53369 -0.899821,1.0037 -1.304682,1.42352 v 0.68361 c 2.216406,-1.64494 3.970073,-2.07804 6.347897,-2.07995 4.06663,-0.004 6.516417,1.45621 11.143581,6.63915 4.810343,5.38813 6.431288,7.03337 7.536787,7.65002 l 1.042105,0.58153 7.352164,-0.0702 c 8.03436,-0.0764 9.689885,0.0943 12.204376,1.258 1.83607,0.84972 3.88831,2.94506 4.81574,4.9165 1.26443,2.68782 1.44375,4.40297 1.3685,13.06935 l -0.0666,7.69391 0.55524,1.09053 c 0.58927,1.1569 2.16188,2.8532 7.31068,7.88711 3.40388,3.32797 4.88601,5.34877 5.77578,7.8752 1.10585,3.13997 0.83891,6.08554 -0.86021,9.49575 -0.0208,0.0418 -0.0471,0.0872 -0.0697,0.13023 0.32292,-0.33142 0.67286,-0.67884 1.05806,-1.04761 5.22523,-5.00239 7.89117,-7.97543 8.81503,-9.82967 1.69912,-3.4102 1.96606,-6.35578 0.86021,-9.49575 -0.88978,-2.52644 -2.37191,-4.54722 -5.77579,-7.87519 -5.14879,-5.03392 -6.7214,-6.73022 -7.31067,-7.88712 l -0.55525,-1.09054 0.0666,-7.6939 c 0.0752,-8.66637 -0.10407,-10.38153 -1.3685,-13.06935 -0.92743,-1.97144 -2.97967,-4.06676 -4.81574,-4.91651 -2.51449,-1.16372 -4.17001,-1.33443 -12.204373,-1.25799 l -7.352163,0.0702 -1.042103,-0.58152 C 88.130049,18.52943 86.509105,16.88419 81.698763,11.49607 77.071597,6.31312 74.621812,4.85323 70.555183,4.85692 Z" />
    <path
       id="path893"
       style="fill:#4d4d4d;fill-opacity:1;stroke-width:0.264583"
       d="m 67.677982,0.13101036 c -5.254455,0.004048 -7.814394,1.77022914 -16.829464,11.61221064 -1.767919,1.93008 -3.149434,3.179164 -4.097424,3.704166 l -1.430403,0.7922 -8.466667,-0.07752 c -9.46325,-0.08656 -11.054546,0.09131 -14.058056,1.569929 -2.055909,1.012121 -4.233888,3.237307 -5.224488,5.338175 -1.31587,2.79074 -1.514104,4.724453 -1.430403,13.939202 l 0.07545,8.334375 -0.62942,1.181323 c -0.66799,1.25318 -2.4507,3.090685 -8.2873501,8.543665 -5.5601578,5.19466 -7.18973976,8.058092 -7.18973976,12.632304 0,1.99631 0.1259787,2.840212 0.61339941,4.101041 1.31598985,3.4041 2.98698705,5.335072 11.00914545,12.72377 1.904791,1.754381 3.170378,3.160483 3.691247,4.101042 l 0.792718,1.431438 -0.07545,8.334375 c -0.08372,9.214744 0.114533,11.148464 1.430403,13.939194 0.988582,2.0966 3.170013,4.32787 5.204334,5.32371 2.99468,1.46596 4.830234,1.6711 14.187764,1.58442 l 8.357113,-0.0775 1.430403,0.79219 c 0.94187,0.52163 2.342342,1.78364 4.101042,3.69592 8.031329,8.73262 9.87793,10.24007 13.946952,11.38326 1.734624,0.48736 4.854387,0.37042 6.657991,-0.24958 3.294389,-1.1325 5.15142,-2.71317 13.286529,-11.30681 4.333626,-4.5779 3.533277,-4.33096 13.758333,-4.23746 9.203499,0.0842 10.786519,-0.0751 13.736629,-1.37977 2.0266,-0.89626 4.38409,-3.19403 5.39398,-5.25705 1.46597,-2.99468 1.67109,-4.83021 1.5844,-14.187758 l -0.0775,-8.357111 0.7922,-1.430404 c 0.52591,-0.94965 1.77073,-2.325555 3.70417,-4.094323 5.92328,-5.418802 8.94537,-8.639329 9.99267,-10.647929 1.9261,-3.69407 2.22871,-6.884845 0.97513,-10.286196 -1.00865,-2.736749 -2.68878,-4.925763 -6.5474,-8.530743 -5.83665,-5.45298 -7.61935,-7.290485 -8.28735,-8.543665 l -0.62942,-1.181323 0.076,-8.334375 c 0.0853,-9.387771 -0.11849,-11.245715 -1.55185,-14.157274 -1.05132,-2.135553 -3.37773,-4.405294 -5.4591,-5.325774 -2.85041,-1.260592 -4.7271,-1.445509 -13.834811,-1.362708 l -8.334375,0.07597 -1.181324,-0.629936 C 87.600766,14.94166 85.763264,13.159469 80.310287,7.3228192 75.064954,1.7084271 72.287897,0.12700986 67.677982,0.13101036 Z M 67.557576,8.4974237 c 1.571232,-0.042609 3.10797,1.0573067 5.265312,3.2184073 1.321654,1.323951 3.709704,3.827349 5.306653,5.562968 4.380253,4.760611 6.716474,6.301219 10.850501,7.155119 1.680916,0.34721 3.557363,0.409781 10.416418,0.347781 8.01091,-0.07238 8.40486,-0.05265 9.28264,0.463021 0.50417,0.296191 1.15901,0.95104 1.4552,1.455209 0.51556,0.87758 0.53557,1.274291 0.46561,9.29504 -0.0593,6.801201 0.005,8.756771 0.34261,10.390581 0.85307,4.12995 2.35967,6.425216 7.07037,10.769886 1.7837,1.6451 4.32635,4.074112 5.6503,5.397603 4.6098,4.60819 4.39036,6.383467 -1.44642,11.697475 -5.95005,5.417132 -8.83677,8.521787 -9.90069,10.648447 -1.64374,3.285659 -1.81954,4.742304 -1.72547,14.281814 0.0779,7.901975 0.0544,8.395675 -0.447,9.398395 -0.35278,0.70555 -0.88195,1.23472 -1.5875,1.5875 -0.99701,0.49846 -1.59497,0.52988 -10.318752,0.53588 -10.319774,0.007 -10.480927,0.0297 -13.890625,1.91668 -1.735995,0.96073 -4.719632,3.79038 -10.729579,10.17561 -1.988735,2.11291 -3.023557,2.99537 -4.101041,3.49694 -1.727816,0.80428 -1.909978,0.81188 -3.389457,0.14058 -1.735291,-0.7874 -3.253237,-2.17948 -7.112228,-6.52209 -3.971509,-4.46925 -6.011567,-6.28296 -8.592757,-7.63934 -2.72304,-1.43092 -4.794387,-1.76256 -10.392647,-1.66346 -10.28494,0.18204 -12.079606,0.12134 -13.229167,-0.447 -0.7095,-0.35077 -1.232759,-0.87181 -1.587499,-1.5813 -0.50164,-1.00329 -0.524752,-1.49871 -0.448552,-9.525001 0.0913,-9.611341 -0.08695,-11.111031 -1.677934,-14.138671 -1.34041,-2.550811 -3.300792,-4.748959 -7.69772,-8.631 -4.29796,-3.79467 -5.909982,-5.601369 -6.5923636,-7.388177 -0.43239,-1.132181 -0.43239,-1.25889 0,-2.391069 0.6800612,-1.780741 2.2853676,-3.578338 6.6683286,-7.46828 4.456469,-3.955179 6.286396,-6.0086 7.626406,-8.558648 1.5863,-3.018732 1.764583,-4.523886 1.673283,-14.130404 -0.07625,-8.026291 -0.0531,-8.52171 0.448552,-9.525 0.35277,-0.705551 0.88194,-1.23472 1.587499,-1.5875 1.002841,-0.501451 1.495109,-0.524968 9.392709,-0.445968 9.53485,0.09544 10.99855,-0.08111 14.2875,-1.72651 2.126659,-1.063918 5.23131,-3.950636 10.648445,-9.900687 2.823161,-3.100895 4.648335,-4.6165422 6.429065,-4.6648313 z" />
    <path
       id="path930"
       style="font-style:normal;font-variant:normal;font-weight:normal;font-stretch:normal;font-size:40.9879px;line-height:1.25;font-family:'Arial Rounded MT Bold';-inkscape-font-specification:'Arial Rounded MT Bold, Normal';font-variant-ligatures:normal;font-variant-caps:normal;font-variant-numeric:normal;font-variant-east-asian:normal;fill:#ff0000;fill-opacity:1;stroke:none;stroke-width:3.87288"
       sodipodi:type="inkscape:offset"
       inkscape:radius="3.7273848"
       inkscape:original="M -66.021484 1184.2383 C -68.593314 1184.2383 -70.990152 1184.9692 -73.208984 1186.4316 C -75.427819 1187.8436 -77.016476 1189.6838 -77.974609 1191.9531 C -78.781458 1194.0207 -79.183594 1196.8692 -79.183594 1200.5 L -79.183594 1286.0508 C -79.183594 1290.2363 -78.226813 1293.4394 -76.310547 1295.6582 C -74.394281 1297.8266 -71.846887 1298.9102 -68.669922 1298.9102 C -65.593812 1298.9102 -63.072161 1297.8266 -61.105469 1295.6582 C -59.138774 1293.4898 -58.15625 1290.2867 -58.15625 1286.0508 L -58.15625 1221.0742 L -16.023438 1285.6738 C -14.813164 1287.4388 -13.602851 1289.178 -12.392578 1290.8926 C -11.182305 1292.5567 -9.870969 1294.0186 -8.4589844 1295.2793 C -7.0469995 1296.54 -5.5336186 1297.4492 -3.9199219 1298.0039 C -2.306225 1298.609 -0.49173035 1298.9102 1.5253906 1298.9102 C 9.5938746 1298.9102 13.628906 1294.0451 13.628906 1284.3125 L 13.628906 1197.0957 C 13.628906 1192.8093 12.695915 1189.6082 10.830078 1187.4902 C 8.9642413 1185.3218 6.4168467 1184.2383 3.1894531 1184.2383 C 0.062915605 1184.2383 -2.4329913 1185.3218 -4.2988281 1187.4902 C -6.114237 1189.6082 -7.0214844 1192.8093 -7.0214844 1197.0957 L -7.0214844 1263.0566 L -50.212891 1197.7012 C -51.423163 1195.7849 -52.607734 1193.9447 -53.767578 1192.1797 C -54.876995 1190.4147 -55.988239 1188.9786 -57.097656 1187.8691 C -58.156645 1186.7597 -59.416494 1185.8762 -60.878906 1185.2207 C -62.29089 1184.5651 -64.004363 1184.2383 -66.021484 1184.2383 z M 142.75 1184.2383 C 139.77475 1184.2383 137.27884 1185.2208 135.26172 1187.1875 C 133.2446 1189.1542 132.23438 1191.5748 132.23438 1194.4492 C 132.23438 1196.7185 132.79098 1200.0206 133.90039 1204.3574 L 152.35547 1279.0176 C 152.91018 1281.2364 153.54205 1283.657 154.24805 1286.2793 C 154.95404 1288.8511 155.86129 1291.0935 156.9707 1293.0098 C 158.08012 1294.8756 159.51627 1296.3137 161.28125 1297.3223 C 163.09666 1298.3813 165.39247 1298.9102 168.16602 1298.9102 C 171.59512 1298.9102 174.34261 1298.0544 176.41016 1296.3398 C 178.4777 1294.5749 179.91581 1292.6079 180.72266 1290.4395 C 181.57993 1288.2206 182.71302 1284.5897 184.125 1279.5469 L 202.2793 1213.0566 L 220.20703 1279.5469 C 221.66944 1284.741 222.80448 1288.4215 223.61133 1290.5898 C 224.41818 1292.7078 225.85432 1294.6253 227.92188 1296.3398 C 229.98941 1298.0544 232.73886 1298.9102 236.16797 1298.9102 C 239.79879 1298.9102 242.59776 1298.0287 244.56445 1296.2637 C 246.58157 1294.4987 247.99198 1292.4564 248.79883 1290.1367 C 249.6561 1287.7666 250.71586 1284.0604 251.97656 1279.0176 L 270.43359 1204.3574 C 271.54301 1199.8189 272.09766 1196.5168 272.09766 1194.4492 C 272.09766 1191.5244 271.06364 1189.1038 268.99609 1187.1875 C 266.97897 1185.2208 264.50881 1184.2383 261.58398 1184.2383 C 258.65916 1184.2383 256.41483 1184.993 254.85156 1186.5059 C 253.33872 1188.0187 252.25322 1189.7341 251.59766 1191.6504 C 250.99252 1193.5667 250.33685 1196.2131 249.63086 1199.5918 L 235.10938 1264.3418 L 218.69336 1203.7539 C 217.3318 1198.7615 216.24825 1195.1801 215.44141 1193.0117 C 214.63456 1190.8433 213.17266 1188.8525 211.05469 1187.0371 C 208.98714 1185.1713 206.0614 1184.2383 202.2793 1184.2383 C 198.54762 1184.2383 195.59809 1185.1198 193.42969 1186.8848 C 191.26128 1188.6498 189.69837 1190.7435 188.74023 1193.1641 C 187.7821 1195.5846 186.69855 1199.1145 185.48828 1203.7539 L 169.22461 1264.3418 L 154.70117 1199.5918 C 153.64218 1194.5994 152.40613 1190.7922 150.99414 1188.1699 C 149.58216 1185.5477 146.83467 1184.2383 142.75 1184.2383 z M 51.978516 1186.1289 C 48.801548 1186.1289 46.180829 1186.6083 44.113281 1187.5664 C 42.09616 1188.4741 40.608524 1189.9617 39.650391 1192.0293 C 38.692258 1194.0464 38.212891 1196.6671 38.212891 1199.8945 L 38.212891 1283.252 C 38.212891 1288.093 39.270695 1291.5992 41.388672 1293.7676 C 43.557078 1295.936 47.086996 1297.0195 51.978516 1297.0195 L 113.02148 1297.0195 C 116.55145 1297.0195 119.19986 1296.2133 120.96484 1294.5996 C 122.78025 1292.9355 123.6875 1290.7922 123.6875 1288.1699 C 123.6875 1285.4468 122.78025 1283.2778 120.96484 1281.6641 C 119.19986 1279.9999 116.55145 1279.168 113.02148 1279.168 L 60.677734 1279.168 L 60.677734 1247.625 L 107.27344 1247.625 C 110.75297 1247.625 113.32416 1246.8446 114.98828 1245.2812 C 116.65241 1243.6678 117.48437 1241.5995 117.48438 1239.0781 C 117.48438 1236.5567 116.62861 1234.5402 114.91406 1233.0273 C 113.24994 1231.4641 110.70254 1230.6816 107.27344 1230.6816 L 60.677734 1230.6816 L 60.677734 1203.4512 L 111.2832 1203.4512 C 114.86359 1203.4512 117.51006 1202.6687 119.22461 1201.1055 C 120.98959 1199.4918 121.87305 1197.3742 121.87305 1194.752 C 121.87305 1192.1801 120.98959 1190.1121 119.22461 1188.5488 C 117.51006 1186.9351 114.86359 1186.1289 111.2832 1186.1289 L 51.978516 1186.1289 z "
       transform="matrix(0.19973085,0,0,0.23988378,48.467879,-229.80264)"
       d="m -66.021484,1180.5117 c -3.269544,0 -6.447689,0.9808 -9.214844,2.7988 -2.762272,1.7657 -4.924789,4.2397 -6.171875,7.1934 a 3.7277575,3.7277575 0 0 0 -0.03906,0.094 c -1.075849,2.7569 -1.46289,5.9963 -1.46289,9.9023 v 85.5508 c 0,4.7535 1.104307,8.9456 3.779297,12.043 a 3.7277575,3.7277575 0 0 0 0.02734,0.033 c 2.593668,2.9349 6.409071,4.5097 10.433594,4.5097 3.951457,0 7.709461,-1.5895 10.326172,-4.4746 2.778822,-3.0638 3.914062,-7.299 3.914062,-12.1113 v -52.4395 l 35.285157,54.0996 a 3.7277575,3.7277575 0 0 0 0.04687,0.07 c 1.219876,1.7791 2.440219,3.5335 3.660156,5.2618 a 3.7277575,3.7277575 0 0 0 0.03125,0.043 c 1.352805,1.8601 2.840251,3.5241 4.464844,4.9746 1.7220442,1.5376 3.6634323,2.7171 5.7656248,3.4473 2.0790376,0.7717 4.33225316,1.1289 6.7011718,1.1289 4.7834162,0 9.1505784,-1.6233 11.9472654,-4.9961 2.796688,-3.3727 3.882813,-7.9467 3.882813,-13.3281 v -87.2168 c 0,-4.8189 -1.037406,-9.0008 -3.716797,-12.0527 -2.559473,-2.9629 -6.3957971,-4.5313 -10.4492189,-4.5313 -3.98768636,0 -7.7771009,1.5981 -10.3144531,4.5469 a 3.7277575,3.7277575 0 0 0 -0.00391,0.01 c -2.6237666,3.061 -3.6191408,7.2189 -3.6191408,12.0312 v 53.5625 l -36.3125,-54.9473 -0.04297,-0.064 c -1.192757,-1.8878 -2.361034,-3.7052 -3.507812,-5.4512 l -0.0039,-0.01 c -1.212552,-1.9283 -2.467005,-3.5637 -3.822266,-4.9239 -1.384159,-1.4412 -3.043707,-2.6006 -4.894531,-3.4336 -2.021852,-0.9339 -4.27862,-1.3203 -6.689453,-1.3203 z m 208.771484,0 c -3.79583,0 -7.41659,1.4014 -10.08984,4.0078 -2.6663,2.5997 -4.15235,6.182 -4.15235,9.9297 0,2.8788 0.63344,6.3451 1.78125,10.832 l 18.44727,74.6309 a 3.7277575,3.7277575 0 0 0 0.004,0.01 c 0.56154,2.2461 1.19765,4.6869 1.90821,7.3261 a 3.7277575,3.7277575 0 0 0 0.006,0.018 c 0.77536,2.8246 1.79019,5.3665 3.08984,7.6114 a 3.7277575,3.7277575 0 0 0 0.0234,0.037 c 1.3982,2.3514 3.32218,4.2993 5.64844,5.6328 2.52751,1.4706 5.50805,2.0898 8.75,2.0898 4.04926,0 7.77565,-1.0664 10.62304,-3.4277 a 3.7277575,3.7277575 0 0 0 0.041,-0.035 c 2.45309,-2.094 4.32092,-4.5891 5.37695,-7.416 0.95067,-2.4639 2.08471,-6.1225 3.50781,-11.2051 a 3.7277575,3.7277575 0 0 0 0.006,-0.023 l 14.53516,-53.2363 14.35156,53.2246 a 3.7277575,3.7277575 0 0 0 0.0117,0.039 c 1.47428,5.2363 2.60887,8.9445 3.49805,11.334 a 3.7277575,3.7277575 0 0 0 0.0117,0.025 c 1.06423,2.7936 2.94818,5.2482 5.41406,7.293 2.84828,2.3621 6.57573,3.4277 10.625,3.4277 4.22515,0 8.05294,-1.0703 10.86719,-3.5859 2.43062,-2.1318 4.25477,-4.7421 5.27929,-7.6836 0.94356,-2.6139 2.00576,-6.359 3.27735,-11.4453 a 3.7277575,3.7277575 0 0 0 0.004,-0.01 l 18.45703,-74.6601 a 3.7277575,3.7277575 0 0 0 0.002,-0.01 c 1.1404,-4.6653 1.76953,-8.0588 1.76953,-10.793 0,-3.7858 -1.52471,-7.4001 -4.26172,-9.957 -2.65863,-2.5754 -6.23412,-3.9805 -9.97852,-3.9805 -3.56601,0 -6.92498,0.9945 -9.32421,3.3164 a 3.7277575,3.7277575 0 0 0 -0.043,0.043 c -1.87868,1.8786 -3.30355,4.1082 -4.14649,6.5723 a 3.7277575,3.7277575 0 0 0 -0.0273,0.084 c -0.66906,2.1188 -1.33976,4.8532 -2.06055,8.3028 l -11.21484,50 -12.47656,-46.0508 a 3.7277575,3.7277575 0 0 0 -0.002,-0.01 c -1.37458,-5.0401 -2.45925,-8.6591 -3.35351,-11.0625 -1.05494,-2.8351 -2.94463,-5.3372 -5.42383,-7.4707 -2.90371,-2.5993 -6.85633,-3.7285 -11.23242,-3.7285 -4.31867,0 -8.22253,1.0563 -11.20313,3.4824 -2.6076,2.1225 -4.60283,4.7724 -5.80078,7.7989 -1.06061,2.6794 -2.16366,6.3011 -3.39453,11.0195 l -12.33203,45.9453 -11.20117,-49.9394 v -0 c -1.10114,-5.1901 -2.37724,-9.2642 -4.07227,-12.4122 -2.12335,-3.9432 -6.64414,-5.8906 -11.52539,-5.8906 z m -90.771484,1.8906 c -3.541712,0 -6.684264,0.5175 -9.40625,1.7735 -2.770329,1.2505 -5.0056,3.5007 -6.294922,6.2734 -1.281978,2.7081 -1.791016,5.8568 -1.791016,9.4453 v 83.3575 c 0,5.3839 1.148443,9.9596 4.236328,13.121 a 3.7277575,3.7277575 0 0 0 0.03125,0.029 c 3.159599,3.1596 7.782665,4.3438 13.22461,4.3438 h 61.042964 c 4.0975,0 7.77985,-0.947 10.45899,-3.3965 a 3.7277575,3.7277575 0 0 0 0.004,-0 c 2.5346,-2.3234 3.92968,-5.6958 3.92968,-9.1778 0,-3.5305 -1.36842,-6.9406 -3.93359,-9.2461 -2.66529,-2.4899 -6.36249,-3.4824 -10.45899,-3.4824 H 64.404297 v -24.0898 h 42.869143 c 4.03685,0 7.6582,-0.9021 10.26758,-3.3536 a 3.7277575,3.7277575 0 0 0 0.041,-0.041 c 2.36139,-2.2894 3.62889,-5.5376 3.62891,-8.8789 0,-3.344 -1.33312,-6.6079 -3.78906,-8.8008 -2.59207,-2.4089 -6.17349,-3.3222 -10.14844,-3.3222 H 64.404297 v -19.7774 H 111.2832 c 4.12348,0 7.78507,-0.8858 10.45313,-3.3183 a 3.7277575,3.7277575 0 0 0 0.004,-0 c 2.50632,-2.2915 3.85938,-5.6441 3.85938,-9.1035 0,-3.4057 -1.36883,-6.7158 -3.86523,-8.9512 -2.65429,-2.472 -6.33267,-3.3985 -10.45118,-3.3985 z" />
  </g>
</svg>
