<?xml version="1.0" encoding="UTF-8" standalone="no"?>
<svg
   xmlns:dc="http://purl.org/dc/elements/1.1/"
   xmlns:cc="http://creativecommons.org/ns#"
   xmlns:rdf="http://www.w3.org/1999/02/22-rdf-syntax-ns#"
   xmlns:svg="http://www.w3.org/2000/svg"
   xmlns="http://www.w3.org/2000/svg"
   xmlns:sodipodi="http://sodipodi.sourceforge.net/DTD/sodipodi-0.dtd"
   xmlns:inkscape="http://www.inkscape.org/namespaces/inkscape"
   width="512"
   height="512"
   viewBox="0 0 135.46666 135.46667"
   version="1.1"
   id="svg8"
   inkscape:version="1.0 (4035a4f, 2020-05-01)"
   sodipodi:docname="arrows_`.svg">
  <defs
     id="defs2" />
  <sodipodi:namedview
     inkscape:snap-global="false"
     id="base"
     pagecolor="#ffffff"
     bordercolor="#666666"
     borderopacity="1.0"
     inkscape:pageopacity="0.0"
     inkscape:pageshadow="2"
     inkscape:zoom="0.48302146"
     inkscape:cx="-281.893"
     inkscape:cy="621.72965"
     inkscape:document-units="px"
     inkscape:current-layer="layer1"
     inkscape:document-rotation="0"
     showgrid="false"
     units="px"
     inkscape:showpageshadow="false"
     borderlayer="true"
     inkscape:window-width="1663"
     inkscape:window-height="1035"
     inkscape:window-x="0"
     inkscape:window-y="23"
     inkscape:window-maximized="0" />
  <metadata
     id="metadata5">
    <rdf:RDF>
      <cc:Work
         rdf:about="">
        <dc:format>image/svg+xml</dc:format>
        <dc:type
           rdf:resource="http://purl.org/dc/dcmitype/StillImage" />
        <dc:title></dc:title>
      </cc:Work>
    </rdf:RDF>
  </metadata>
  <g
     inkscape:label="レイヤー 1"
     inkscape:groupmode="layer"
     id="layer1">
    <g
       transform="translate(230.49842,-77.41094)"
       id="g1031">
      <path
         id="path1020"
         style="opacity:1;fill:#b4f78d;fill-opacity:1;stroke:none;stroke-width:0.999999"
         d="m -664.75586,341.39844 c -33.10816,-0.043 -66.02634,4.33278 -88.65234,28.25586 -36.91359,39.02989 -22.31891,102.72903 24.23047,126.00586 12.30425,6.15284 31.33338,12.3469 44.80664,7.39062 l 0.70898,0.70508 -85.9707,86.5625 c -17.45772,17.57767 -36.99585,33.71333 -45.41992,57.77539 -20.0778,57.35169 36.91698,119.56704 95.95312,102.3457 26.90937,-7.85015 43.90396,-28.15562 62.99023,-47.37304 l 85.97071,-86.56055 c -1.43354,10.88591 -0.24115,21.88805 3.12305,32.33398 7.8475,24.36284 27.11283,46.12191 51.8125,54.26172 41.54861,13.69164 89.902,-11.07328 101.84765,-53.50195 7.21179,-25.61579 3.65854,-54.68273 3.56836,-81.01953 l -0.36328,-106.06641 c -0.14627,-42.73447 -0.33423,-84.49407 -41.31055,-108.82617 -20.38643,-12.10521 -43.71717,-11.09002 -66.58203,-11.01172 l -89.09375,0.30469 c -17.81998,0.0611 -37.75425,-1.55624 -57.61914,-1.58203 z"
         transform="scale(0.26458333)" />
      <path
         transform="matrix(0.26458333,0,0,0.26458333,-44.369147,-131.46414)"
         d="m -325.52734,840.51367 -9.13086,28.57617 c 5.46697,1.74578 15.07077,6.89255 22.36718,15.45704 7.29638,8.56444 12.96053,20.22348 12.58594,38.02343 l -0.008,0.15625 v 213.39454 c -1.80756,16.8676 -6.5453,22.7648 -12.5625,27.373 -6.06913,4.6481 -15.13352,7.2586 -25.69727,12.2618 l 12.83789,27.1054 c 6.87387,-3.2556 19.14701,-6.3929 31.09961,-15.5468 11.95265,-9.1539 21.85499,-25.1745 24.25,-48.4395 l 0.0723,-0.7676 V 923.19922 c 0.52339,-24.87262 -8.25282,-44.6206 -19.74609,-58.11133 -11.49325,-13.49072 -25.03275,-21.05022 -36.06836,-24.57422 z m -89.85938,220.76173 a 15,15 0 0 0 -0.31055,0 15,15 0 0 0 -10.35546,4.3926 l -124.34766,124.3477 c -20.47461,17.3698 -28.81329,26.3305 -38.32031,30.7969 a 15,15 0 0 0 -7.19727,19.9531 15,15 0 0 0 19.95313,7.1972 c 16.3457,-7.679 25.61075,-18.7067 45.50195,-35.5371 l 0.47266,-0.3984 125.15234,-125.1445 a 15,15 0 0 0 0,-21.2149 15,15 0 0 0 -10.54883,-4.3945 z"
         style="color:#000000;font-style:normal;font-variant:normal;font-weight:normal;font-stretch:normal;font-size:medium;line-height:normal;font-family:sans-serif;font-variant-ligatures:normal;font-variant-position:normal;font-variant-caps:normal;font-variant-numeric:normal;font-variant-alternates:normal;font-variant-east-asian:normal;font-feature-settings:normal;font-variation-settings:normal;text-indent:0;text-align:start;text-decoration:none;text-decoration-line:none;text-decoration-style:solid;text-decoration-color:#000000;letter-spacing:normal;word-spacing:normal;text-transform:none;writing-mode:lr-tb;direction:ltr;text-orientation:mixed;dominant-baseline:auto;baseline-shift:baseline;text-anchor:start;white-space:normal;shape-padding:0;shape-margin:0;inline-size:0;clip-rule:nonzero;display:inline;overflow:visible;visibility:visible;opacity:0.154545;isolation:auto;mix-blend-mode:normal;color-interpolation:sRGB;color-interpolation-filters:linearRGB;solid-color:#000000;solid-opacity:1;vector-effect:none;fill:#000000;fill-opacity:1;fill-rule:nonzero;stroke:none;stroke-width:30;stroke-linecap:butt;stroke-linejoin:miter;stroke-miterlimit:4;stroke-dasharray:none;stroke-dashoffset:0;stroke-opacity:1;color-rendering:auto;image-rendering:auto;shape-rendering:auto;text-rendering:auto;enable-background:accumulate;stop-color:#000000;stop-opacity:1"
         id="path1126" />
      <path
         id="path1009"
         d="m -181.07323,133.0991 0.18772,0.18645 -22.74652,22.90283 c -4.61902,4.65076 -9.7887,8.91993 -12.01757,15.28635 -5.31225,15.1743 9.76764,31.63536 25.38762,27.07888 7.11977,-2.07702 11.61655,-7.4491 16.66646,-12.53371 l 22.74653,-22.90282 c -0.37929,2.88023 -0.0642,5.7912 0.82591,8.55502 2.07632,6.446 7.17384,12.20307 13.70896,14.35673 10.99307,3.62258 23.78628,-2.92969 26.9469,-14.15561 1.90812,-6.77751 0.96804,-14.46815 0.94418,-21.43643 l -0.0961,-28.06313 c -0.0387,-11.30683 -0.0885,-22.35618 -10.93015,-28.794048 -5.39391,-3.202838 -11.56639,-2.934183 -17.61605,-2.913466 l -23.57304,0.08071 c -12.57299,0.04308 -29.12234,-3.069879 -38.70068,7.057555 -9.76672,10.326659 -5.90526,27.180189 6.41093,33.338849 3.2555,1.62794 8.29009,3.26719 11.85489,1.95584 m -12.57982,-28.9017 c 3.67452,-4.806109 9.21672,-4.762899 14.70957,-4.781749 l 18.70876,-0.064 23.9472,-0.082 c 5.1696,-0.0177 10.03041,-0.49981 14.36147,2.811239 5.32204,4.06896 4.7676,10.59822 4.78808,16.58053 l 0.13068,38.16587 c 0.0204,5.95761 1.07283,12.53002 -3.13781,17.39326 -6.12839,7.07838 -17.84089,4.91494 -21.34702,-3.62867 -2.10152,-5.12076 -0.7271,-11.60644 -0.98813,-17.02741 -0.13172,-2.73256 -1.70876,-4.82537 -4.64146,-4.6288 -1.99916,0.13369 -3.19962,1.63527 -4.51407,2.95875 l -7.45788,7.50912 -21.0685,21.21328 c -3.3689,3.39204 -6.74192,7.97848 -11.43094,9.52964 -11.65507,3.85567 -21.35704,-10.22937 -13.9946,-19.86553 2.77566,-3.63276 6.60544,-6.75937 9.82742,-10.0035 l 19.20404,-19.33601 7.08499,-7.13366 c 1.36945,-1.37886 2.74939,-2.59032 2.75044,-4.68722 0.003,-4.81944 -5.35108,-4.35322 -8.76067,-4.26521 -4.64802,0.11993 -9.58636,0.63506 -13.96152,-1.35126 -7.38418,-3.35267 -8.89903,-13.17367 -4.21007,-19.30664 z"
         style="opacity:1;fill:#4e4e4f;stroke:none;stroke-width:0.264583" />
    </g>
  </g>
</svg>
