<?xml version="1.0" encoding="UTF-8" standalone="no"?>
<svg
   xmlns:dc="http://purl.org/dc/elements/1.1/"
   xmlns:cc="http://creativecommons.org/ns#"
   xmlns:rdf="http://www.w3.org/1999/02/22-rdf-syntax-ns#"
   xmlns:svg="http://www.w3.org/2000/svg"
   xmlns="http://www.w3.org/2000/svg"
   xmlns:sodipodi="http://sodipodi.sourceforge.net/DTD/sodipodi-0.dtd"
   xmlns:inkscape="http://www.inkscape.org/namespaces/inkscape"
   width="512"
   height="512"
   viewBox="0 0 135.46666 135.46667"
   version="1.1"
   id="svg8"
   inkscape:version="1.0 (4035a4f, 2020-05-01)"
   sodipodi:docname="arrows_0.svg">
  <defs
     id="defs2" />
  <sodipodi:namedview
     inkscape:snap-global="false"
     id="base"
     pagecolor="#ffffff"
     bordercolor="#666666"
     borderopacity="1.0"
     inkscape:pageopacity="0.0"
     inkscape:pageshadow="2"
     inkscape:zoom="0.48302146"
     inkscape:cx="-281.97508"
     inkscape:cy="624.695"
     inkscape:document-units="px"
     inkscape:current-layer="layer1"
     inkscape:document-rotation="0"
     showgrid="false"
     units="px"
     inkscape:showpageshadow="false"
     borderlayer="true"
     inkscape:window-width="1663"
     inkscape:window-height="1035"
     inkscape:window-x="0"
     inkscape:window-y="23"
     inkscape:window-maximized="0" />
  <metadata
     id="metadata5">
    <rdf:RDF>
      <cc:Work
         rdf:about="">
        <dc:format>image/svg+xml</dc:format>
        <dc:type
           rdf:resource="http://purl.org/dc/dcmitype/StillImage" />
        <dc:title></dc:title>
      </cc:Work>
    </rdf:RDF>
  </metadata>
  <g
     inkscape:label="レイヤー 1"
     inkscape:groupmode="layer"
     id="layer1">
    <g
       transform="translate(168.09971,-337.74948)"
       id="g1159">
      <path
         d="m -113.98562,460.06293 c -8.75987,0.0114 -17.46947,-1.14638 -23.45593,-7.47603 -9.76672,-10.32665 -5.90521,-27.18038 6.41098,-33.33905 3.2555,-1.62793 8.29029,-3.26678 11.85509,-1.95543 l 0.18758,-0.18655 -22.74641,-22.903 c -4.61902,-4.65076 -9.78849,-8.91998 -12.01736,-15.2864 -5.31225,-15.1743 9.76762,-31.63545 25.3876,-27.07897 7.11977,2.07702 11.61626,7.44951 16.66616,12.53412 l 22.746421,22.90248 c -0.379291,-2.88023 -0.0638,-5.79122 0.826307,-8.55504 2.076318,-6.446 7.173603,-12.20308 13.708724,-14.35674 10.993069,-3.62258 23.78657,2.9298 26.94719,14.15572 1.90812,6.77751 0.967989,14.46814 0.944129,21.43642 l -0.09612,28.0634 c -0.0387,11.30683 -0.08843,22.35573 -10.930083,28.79359 -5.393909,3.20284 -11.566834,2.93424 -17.616495,2.91352 l -23.572721,-0.0806 c -4.714872,-0.0162 -9.989142,0.41175 -15.245062,0.41857 z"
         style="fill:#f78c8c;fill-opacity:1;stroke:none;stroke-width:0.264583"
         id="path1114" />
      <path
         id="path1143"
         style="color:#000000;font-style:normal;font-variant:normal;font-weight:normal;font-stretch:normal;font-size:medium;line-height:normal;font-family:sans-serif;font-variant-ligatures:normal;font-variant-position:normal;font-variant-caps:normal;font-variant-numeric:normal;font-variant-alternates:normal;font-variant-east-asian:normal;font-feature-settings:normal;font-variation-settings:normal;text-indent:0;text-align:start;text-decoration:none;text-decoration-line:none;text-decoration-style:solid;text-decoration-color:#000000;letter-spacing:normal;word-spacing:normal;text-transform:none;writing-mode:lr-tb;direction:ltr;text-orientation:mixed;dominant-baseline:auto;baseline-shift:baseline;text-anchor:start;white-space:normal;shape-padding:0;shape-margin:0;inline-size:0;clip-rule:nonzero;display:inline;overflow:visible;visibility:visible;opacity:0.127273;isolation:auto;mix-blend-mode:normal;color-interpolation:sRGB;color-interpolation-filters:linearRGB;solid-color:#000000;solid-opacity:1;vector-effect:none;fill:#000000;fill-opacity:1;fill-rule:nonzero;stroke:none;stroke-width:30;stroke-linecap:butt;stroke-linejoin:miter;stroke-miterlimit:4;stroke-dasharray:none;stroke-dashoffset:0;stroke-opacity:1;color-rendering:auto;image-rendering:auto;shape-rendering:auto;text-rendering:auto;enable-background:accumulate;stop-color:#000000;stop-opacity:1"
         d="m -514.55273,1328.4336 a 15,15 0 0 0 -0.45313,0 15,15 0 0 0 -13.19726,8.6211 15,15 0 0 0 7.19726,19.9551 c 9.51606,4.4705 16.32775,12.6201 36.79102,30 l 124.41406,124.4062 a 15,15 0 0 0 21.20898,0 15,15 0 0 0 0,-21.209 l -125.14648,-125.1523 -0.47266,-0.3984 c -19.78099,-16.7372 -27.71864,-27.1316 -44.03906,-34.7989 a 15,15 0 0 0 -6.30273,-1.4277 z m 243.22461,45.0625 -12.8379,27.1133 c 11.65623,5.5206 23.99963,8.1302 33.46875,13.664 9.37542,5.4791 15.54746,11.265 17.23829,26.6192 v 213.4707 0.1621 c 0.37455,17.7999 -5.28954,29.459 -12.58594,38.0234 -7.29641,8.5645 -16.89435,13.7054 -22.36133,15.4512 l 9.125,28.582 c 11.03561,-3.524 24.58096,-11.0913 36.07422,-24.582 11.49326,-13.4907 20.26361,-33.2368 19.74023,-58.1094 l 0.008,0.3164 v -215.2265 l -0.082,-0.7676 c -2.54983,-24.769 -17.2413,-41.2077 -32.01562,-49.8418 -14.77432,-8.6341 -29.9901,-12.1369 -35.77148,-14.875 z"
         transform="scale(0.26458333)" />
      <path
         style="fill:#4e4e4f;stroke:none;stroke-width:0.264583"
         d="m -119.17553,417.29217 0.18772,-0.18645 -22.74652,-22.90283 c -4.61902,-4.65076 -9.7887,-8.91993 -12.01757,-15.28635 -5.31225,-15.1743 9.76764,-31.63536 25.38762,-27.07888 7.11977,2.07702 11.61655,7.4491 16.66646,12.53371 l 22.746529,22.90282 c -0.37929,-2.88023 -0.0642,-5.7912 0.82591,-8.55502 2.07632,-6.446 7.17384,-12.20307 13.70896,-14.35673 10.99307,-3.62258 23.78628,2.92969 26.9469,14.15561 1.90812,6.77751 0.96804,14.46815 0.94418,21.43643 l -0.0961,28.06313 c -0.0387,11.30683 -0.0885,22.35618 -10.93015,28.79405 -5.39391,3.20284 -11.56639,2.93418 -17.61605,2.91346 l -23.57304,-0.0807 c -12.572989,-0.0431 -29.122339,3.06988 -38.700679,-7.05755 -9.76672,-10.32666 -5.90526,-27.18019 6.41093,-33.33885 3.2555,-1.62794 8.29009,-3.26719 11.85489,-1.95584 m -12.57982,28.9017 c 3.67452,4.80611 9.21672,4.7629 14.70957,4.78175 l 18.708759,0.064 23.9472,0.082 c 5.1696,0.0177 10.03041,0.49981 14.36147,-2.81124 5.32204,-4.06896 4.7676,-10.59822 4.78808,-16.58053 l 0.13068,-38.16587 c 0.0204,-5.95761 1.07283,-12.53002 -3.13781,-17.39326 -6.12839,-7.07838 -17.84089,-4.91494 -21.34702,3.62867 -2.10152,5.12076 -0.7271,11.60644 -0.98813,17.02741 -0.13172,2.73256 -1.70876,4.82537 -4.64146,4.6288 -1.99916,-0.13369 -3.19962,-1.63527 -4.51407,-2.95875 l -7.45788,-7.50912 -21.068499,-21.21328 c -3.3689,-3.39204 -6.74192,-7.97848 -11.43094,-9.52964 -11.65507,-3.85567 -21.35704,10.22937 -13.9946,19.86553 2.77566,3.63276 6.60544,6.75937 9.82742,10.0035 l 19.20404,19.33601 7.08499,7.13366 c 1.36945,1.37886 2.74939,2.59032 2.75044,4.68722 0.003,4.81944 -5.35108,4.35322 -8.76067,4.26521 -4.64802,-0.11993 -9.58636,-0.63506 -13.96152,1.35126 -7.38418,3.35267 -8.89903,13.17367 -4.21007,19.30664 z"
         id="path1120" />
    </g>
  </g>
</svg>
