<?xml version="1.0" encoding="UTF-8" standalone="no"?>
<svg
   xmlns:dc="http://purl.org/dc/elements/1.1/"
   xmlns:cc="http://creativecommons.org/ns#"
   xmlns:rdf="http://www.w3.org/1999/02/22-rdf-syntax-ns#"
   xmlns:svg="http://www.w3.org/2000/svg"
   xmlns="http://www.w3.org/2000/svg"
   xmlns:sodipodi="http://sodipodi.sourceforge.net/DTD/sodipodi-0.dtd"
   xmlns:inkscape="http://www.inkscape.org/namespaces/inkscape"
   width="512"
   height="512"
   viewBox="0 0 135.46666 135.46667"
   version="1.1"
   id="svg8"
   inkscape:version="1.0 (4035a4f, 2020-05-01)"
   sodipodi:docname="arrows_3.svg">
  <defs
     id="defs2" />
  <sodipodi:namedview
     inkscape:snap-global="false"
     id="base"
     pagecolor="#ffffff"
     bordercolor="#666666"
     borderopacity="1.0"
     inkscape:pageopacity="0.0"
     inkscape:pageshadow="2"
     inkscape:zoom="0.48302146"
     inkscape:cx="-281.893"
     inkscape:cy="456.10554"
     inkscape:document-units="px"
     inkscape:current-layer="layer1"
     inkscape:document-rotation="0"
     showgrid="false"
     units="px"
     inkscape:showpageshadow="false"
     borderlayer="true"
     inkscape:window-width="1663"
     inkscape:window-height="1035"
     inkscape:window-x="0"
     inkscape:window-y="23"
     inkscape:window-maximized="0" />
  <metadata
     id="metadata5">
    <rdf:RDF>
      <cc:Work
         rdf:about="">
        <dc:format>image/svg+xml</dc:format>
        <dc:type
           rdf:resource="http://purl.org/dc/dcmitype/StillImage" />
        <dc:title></dc:title>
      </cc:Work>
    </rdf:RDF>
  </metadata>
  <g
     inkscape:label="レイヤー 1"
     inkscape:groupmode="layer"
     id="layer1">
    <g
       transform="translate(39.065104,-216.20011)"
       id="g1154">
      <g
         id="g1003">
        <path
           d="m 36.941347,224.67407 c -0.215566,-0.002 -0.431834,3.5e-4 -0.649573,0.006 -14.20944,0.3473 -23.446602,14.96373 -19.137333,28.04224 1.139031,3.45702 3.524009,8.18435 6.9665,9.78958 v 0.26458 H -8.1582254 c -6.5547606,0 -13.2268036,-0.66005 -19.3145826,2.24481 -14.509965,6.92388 -15.562982,29.22355 -1.322917,37.09543 6.490859,3.58799 13.471279,2.9931 20.6374996,2.9931 H 24.120941 c -2.310871,1.76051 -4.154268,4.03542 -5.488038,6.61458 -3.110439,6.01557 -3.603164,13.68928 -0.526066,19.84375 5.176311,10.35259 18.840572,14.8123 29.032853,9.14413 6.15342,-3.42212 10.94766,-9.50846 15.875,-14.4358 L 82.85844,306.43238 C 90.853619,298.43721 98.657907,290.61559 95.585827,278.38655 94.057329,272.30246 89.51747,268.11223 85.23969,263.83447 L 68.57094,247.16572 C 59.819324,238.41415 50.522013,224.77334 36.941347,224.67407 Z"
           style="fill:#81d4fa;fill-opacity:1;stroke:none;stroke-width:0.264583"
           id="path995" />
        <path
           style="color:#000000;font-style:normal;font-variant:normal;font-weight:normal;font-stretch:normal;font-size:medium;line-height:normal;font-family:sans-serif;font-variant-ligatures:normal;font-variant-position:normal;font-variant-caps:normal;font-variant-numeric:normal;font-variant-alternates:normal;font-variant-east-asian:normal;font-feature-settings:normal;font-variation-settings:normal;text-indent:0;text-align:start;text-decoration:none;text-decoration-line:none;text-decoration-style:solid;text-decoration-color:#000000;letter-spacing:normal;word-spacing:normal;text-transform:none;writing-mode:lr-tb;direction:ltr;text-orientation:mixed;dominant-baseline:auto;baseline-shift:baseline;text-anchor:start;white-space:normal;shape-padding:0;shape-margin:0;inline-size:0;clip-rule:nonzero;display:inline;overflow:visible;visibility:visible;opacity:1;isolation:auto;mix-blend-mode:normal;color-interpolation:sRGB;color-interpolation-filters:linearRGB;solid-color:#000000;solid-opacity:1;vector-effect:none;fill:#000000;fill-opacity:0.124668;fill-rule:nonzero;stroke:none;stroke-width:7.9375;stroke-linecap:butt;stroke-linejoin:miter;stroke-miterlimit:4;stroke-dasharray:none;stroke-dashoffset:0;stroke-opacity:1;color-rendering:auto;image-rendering:auto;shape-rendering:auto;text-rendering:auto;enable-background:accumulate;stop-color:#000000;stop-opacity:1"
           d="m 39.316406,227.06836 -5.507812,5.7168 44.605468,42.98828 0.119141,0.0976 c 3.946001,3.24882 4.943025,5.61866 4.851563,7.67383 -0.09146,2.05517 -1.564675,4.83951 -5.201172,8.17578 l -0.06445,0.0586 -42.94336,42.97265 5.615235,5.61133 42.882812,-42.91406 -0.125,0.11914 c 4.429928,-4.0642 7.535687,-8.50512 7.765625,-13.67188 0.229938,-5.16675 -2.709247,-10.01506 -7.734375,-14.15234 l 0.230469,0.20508 z"
           id="path1148" />
        <path
           id="path989"
           d="m 24.120753,262.51141 v 0.26458 H -8.1584066 c -6.5547604,0 -13.2268104,-0.6596 -19.3145904,2.24526 -14.50996,6.92388 -15.56297,29.22323 -1.32291,37.09511 6.49086,3.58801 13.47128,2.99297 20.6375004,2.99297 H 24.120753 c -2.31087,1.76053 -4.15422,4.03542 -5.48799,6.61458 -3.11044,6.01557 -3.60309,13.68928 -0.52599,19.84375 5.17631,10.35261 18.84045,14.81243 29.03273,9.14426 6.15342,-3.42212 10.94766,-9.50859 15.875,-14.43593 l 19.84375,-19.84375 c 7.99518,-7.99518 15.79986,-15.81679 12.72778,-28.04583 -1.5285,-6.08409 -6.06875,-10.2743 -10.34653,-14.55208 l -16.66875,-16.66875 c -8.89053,-8.89048 -18.34383,-22.82629 -32.27917,-22.48572 -14.20944,0.34729 -23.44631,14.96346 -19.13704,28.04197 1.13903,3.45704 3.52372,8.18435 6.96621,9.78958 m 11.64167,-29.29218 c 5.99942,-0.77962 9.87425,3.18315 13.75833,7.06718 l 13.22917,13.22917 16.93333,16.93333 c 3.65548,3.65548 7.42288,6.7646 8.12562,12.17083 0.86333,6.64343 -4.16005,10.85109 -8.3902,15.08125 l -26.9875,26.9875 c -4.2127,4.2127 -8.13435,9.59088 -14.55209,10.03036 -9.34084,0.63976 -16.05941,-9.19507 -12.46822,-17.70327 2.15239,-5.09958 7.72266,-8.69474 11.38502,-12.7 1.846,-2.01904 2.21959,-4.61275 0.0135,-6.55506 -1.50363,-1.32424 -3.41498,-1.11786 -5.28029,-1.11786 H 20.945763 -8.9521466 c -4.7807304,0 -10.4118304,0.83873 -14.8166704,-1.39515 -10.9488,-5.55254 -7.79193,-22.36179 4.23333,-23.92838 4.53348,-0.59055 9.45066,-0.0765 14.0229204,-0.0765 h 27.2520796 10.05417 c 1.94336,0 3.77534,0.12541 5.26388,-1.35149 3.42133,-3.39434 -0.68209,-6.86435 -3.14722,-9.22152 -3.36047,-3.21337 -7.20592,-6.35424 -8.87968,-10.85824 -2.82469,-7.60182 3.07605,-15.59732 10.73177,-16.59218 z"
           style="fill:#4e4e4f;stroke:none;stroke-width:0.264583" />
      </g>
    </g>
  </g>
</svg>
